<svg width="140" height="24" viewBox="0 0 140 24" fill="none" xmlns="http://www.w3.org/2000/svg">
<path d="M15.2969 19.8438V23.5H3.1875V19.8438H15.2969ZM4.71875 0.75V23.5H0.03125V0.75H4.71875ZM13.7188 10.0156V13.5781H3.1875V10.0156H13.7188ZM15.2812 0.75V4.42188H3.1875V0.75H15.2812ZM23.0938 20.2188L26.8438 6.59375H31.5469L25.8438 23.5H23L23.0938 20.2188ZM20.5156 6.59375L24.2812 20.2344L24.3594 23.5H21.5L15.7969 6.59375H20.5156ZM41.125 23.8125C39.8125 23.8125 38.6354 23.6042 37.5938 23.1875C36.5521 22.7604 35.6667 22.1719 34.9375 21.4219C34.2188 20.6719 33.6667 19.8021 33.2812 18.8125C32.8958 17.8125 32.7031 16.75 32.7031 15.625V15C32.7031 13.7188 32.8854 12.5469 33.25 11.4844C33.6146 10.4219 34.1354 9.5 34.8125 8.71875C35.5 7.9375 36.3333 7.33854 37.3125 6.92188C38.2917 6.49479 39.3958 6.28125 40.625 6.28125C41.8229 6.28125 42.8854 6.47917 43.8125 6.875C44.7396 7.27083 45.5156 7.83333 46.1406 8.5625C46.776 9.29167 47.2552 10.1667 47.5781 11.1875C47.901 12.1979 48.0625 13.3229 48.0625 14.5625V16.4375H34.625V13.4375H43.6406V13.0938C43.6406 12.4688 43.526 11.9115 43.2969 11.4219C43.0781 10.9219 42.7448 10.526 42.2969 10.2344C41.849 9.94271 41.276 9.79688 40.5781 9.79688C39.9844 9.79688 39.474 9.92708 39.0469 10.1875C38.6198 10.4479 38.2708 10.8125 38 11.2812C37.7396 11.75 37.5417 12.3021 37.4062 12.9375C37.2812 13.5625 37.2188 14.25 37.2188 15V15.625C37.2188 16.3021 37.3125 16.9271 37.5 17.5C37.6979 18.0729 37.974 18.5677 38.3281 18.9844C38.6927 19.401 39.1302 19.724 39.6406 19.9531C40.1615 20.1823 40.75 20.2969 41.4062 20.2969C42.2188 20.2969 42.974 20.1406 43.6719 19.8281C44.3802 19.5052 44.9896 19.0208 45.5 18.375L47.6875 20.75C47.3333 21.2604 46.849 21.75 46.2344 22.2188C45.6302 22.6875 44.901 23.0729 44.0469 23.375C43.1927 23.6667 42.2188 23.8125 41.125 23.8125ZM55.0312 10.2031V23.5H50.5312V6.59375H54.75L55.0312 10.2031ZM54.375 14.4531H53.1562C53.1562 13.2031 53.3177 12.0781 53.6406 11.0781C53.9635 10.0677 54.4167 9.20833 55 8.5C55.5833 7.78125 56.276 7.23438 57.0781 6.85938C57.8906 6.47396 58.7969 6.28125 59.7969 6.28125C60.5885 6.28125 61.3125 6.39583 61.9688 6.625C62.625 6.85417 63.1875 7.21875 63.6562 7.71875C64.1354 8.21875 64.5 8.88021 64.75 9.70312C65.0104 10.526 65.1406 11.5312 65.1406 12.7188V23.5H60.6094V12.7031C60.6094 11.9531 60.5052 11.3698 60.2969 10.9531C60.0885 10.5365 59.7812 10.2448 59.375 10.0781C58.9792 9.90104 58.4896 9.8125 57.9062 9.8125C57.3021 9.8125 56.776 9.93229 56.3281 10.1719C55.8906 10.4115 55.526 10.7448 55.2344 11.1719C54.9531 11.5885 54.7396 12.0781 54.5938 12.6406C54.4479 13.2031 54.375 13.8073 54.375 14.4531ZM76.8438 6.59375V9.78125H67V6.59375H76.8438ZM69.4375 2.42188H73.9375V18.4062C73.9375 18.8958 74 19.2708 74.125 19.5312C74.2604 19.7917 74.4583 19.974 74.7188 20.0781C74.9792 20.1719 75.3073 20.2188 75.7031 20.2188C75.9844 20.2188 76.2344 20.2083 76.4531 20.1875C76.6823 20.1562 76.875 20.125 77.0312 20.0938L77.0469 23.4062C76.6615 23.5312 76.2448 23.6302 75.7969 23.7031C75.349 23.776 74.8542 23.8125 74.3125 23.8125C73.3229 23.8125 72.4583 23.651 71.7188 23.3281C70.9896 22.9948 70.4271 22.4635 70.0312 21.7344C69.6354 21.0052 69.4375 20.0469 69.4375 18.8594V2.42188Z" fill="black"/>
<path d="M91.8281 9.92188H94.3906C95.0469 9.92188 95.5833 9.80729 96 9.57812C96.4271 9.33854 96.7448 9.00521 96.9531 8.57812C97.1615 8.14062 97.2656 7.625 97.2656 7.03125C97.2656 6.57292 97.1667 6.15104 96.9688 5.76562C96.7812 5.38021 96.4896 5.07292 96.0938 4.84375C95.6979 4.60417 95.1927 4.48438 94.5781 4.48438C94.1615 4.48438 93.7552 4.57292 93.3594 4.75C92.9635 4.91667 92.6354 5.15625 92.375 5.46875C92.125 5.78125 92 6.16146 92 6.60938H86.7188C86.7188 5.31771 87.0729 4.21354 87.7812 3.29688C88.5 2.36979 89.4427 1.66146 90.6094 1.17188C91.7865 0.671875 93.0521 0.421875 94.4062 0.421875C96.0208 0.421875 97.4375 0.671875 98.6562 1.17188C99.875 1.66146 100.823 2.39062 101.5 3.35938C102.188 4.31771 102.531 5.50521 102.531 6.92188C102.531 7.70312 102.349 8.4375 101.984 9.125C101.62 9.8125 101.109 10.4167 100.453 10.9375C99.7969 11.4583 99.026 11.8698 98.1406 12.1719C97.2656 12.4635 96.3073 12.6094 95.2656 12.6094H91.8281V9.92188ZM91.8281 13.8438V11.2188H95.2656C96.401 11.2188 97.4375 11.349 98.375 11.6094C99.3125 11.8594 100.12 12.2344 100.797 12.7344C101.474 13.2344 101.995 13.8542 102.359 14.5938C102.724 15.3229 102.906 16.1615 102.906 17.1094C102.906 18.1719 102.693 19.1198 102.266 19.9531C101.839 20.7865 101.24 21.4896 100.469 22.0625C99.6979 22.6354 98.7969 23.0729 97.7656 23.375C96.7344 23.6667 95.6146 23.8125 94.4062 23.8125C93.4583 23.8125 92.5104 23.6875 91.5625 23.4375C90.6146 23.1771 89.75 22.7812 88.9688 22.25C88.1875 21.7083 87.5573 21.0208 87.0781 20.1875C86.6094 19.3438 86.375 18.3385 86.375 17.1719H91.6562C91.6562 17.651 91.7865 18.0885 92.0469 18.4844C92.3177 18.8698 92.6771 19.1771 93.125 19.4062C93.5729 19.6354 94.0573 19.75 94.5781 19.75C95.224 19.75 95.7708 19.6302 96.2188 19.3906C96.6771 19.1406 97.026 18.8073 97.2656 18.3906C97.5052 17.974 97.625 17.5104 97.625 17C97.625 16.2292 97.4948 15.6146 97.2344 15.1562C96.9844 14.6979 96.6146 14.3646 96.125 14.1562C95.6458 13.9479 95.0677 13.8438 94.3906 13.8438H91.8281ZM117.453 0.421875H118.297V4.5625H118.016C117.005 4.5625 116.057 4.70312 115.172 4.98438C114.297 5.26562 113.526 5.69271 112.859 6.26562C112.203 6.82812 111.688 7.54167 111.312 8.40625C110.948 9.27083 110.766 10.2865 110.766 11.4531V15.4375C110.766 16.1667 110.828 16.8021 110.953 17.3438C111.078 17.8854 111.266 18.3333 111.516 18.6875C111.766 19.0417 112.073 19.3073 112.438 19.4844C112.812 19.6615 113.245 19.75 113.734 19.75C114.141 19.75 114.516 19.6562 114.859 19.4688C115.203 19.2812 115.5 19.0156 115.75 18.6719C116.01 18.3281 116.208 17.9271 116.344 17.4688C116.479 17.0104 116.547 16.5104 116.547 15.9688C116.547 15.3854 116.474 14.8594 116.328 14.3906C116.182 13.9219 115.974 13.526 115.703 13.2031C115.443 12.8698 115.125 12.6198 114.75 12.4531C114.385 12.276 113.984 12.1875 113.547 12.1875C112.88 12.1875 112.312 12.3385 111.844 12.6406C111.385 12.9323 111.036 13.3073 110.797 13.7656C110.568 14.224 110.453 14.6875 110.453 15.1562L109.188 13.875C109.167 13.25 109.286 12.6042 109.547 11.9375C109.807 11.2708 110.198 10.651 110.719 10.0781C111.24 9.50521 111.891 9.04167 112.672 8.6875C113.453 8.33333 114.359 8.15625 115.391 8.15625C116.432 8.15625 117.349 8.35417 118.141 8.75C118.943 9.14583 119.615 9.69792 120.156 10.4062C120.708 11.1146 121.125 11.9427 121.406 12.8906C121.688 13.8385 121.828 14.8646 121.828 15.9688C121.828 17.0833 121.63 18.1198 121.234 19.0781C120.849 20.026 120.302 20.8542 119.594 21.5625C118.885 22.2708 118.047 22.8229 117.078 23.2188C116.109 23.6146 115.042 23.8125 113.875 23.8125C112.677 23.8125 111.568 23.6094 110.547 23.2031C109.536 22.7865 108.651 22.1875 107.891 21.4062C107.141 20.6146 106.552 19.651 106.125 18.5156C105.708 17.3802 105.5 16.0938 105.5 14.6562V12.7344C105.5 10.7865 105.818 9.05208 106.453 7.53125C107.099 6.01042 107.974 4.72396 109.078 3.67188C110.193 2.60938 111.469 1.80208 112.906 1.25C114.344 0.697917 115.859 0.421875 117.453 0.421875ZM139.953 10.0469V14.2031C139.953 15.8385 139.76 17.2604 139.375 18.4688C139 19.6771 138.458 20.6771 137.75 21.4688C137.052 22.2604 136.219 22.849 135.25 23.2344C134.281 23.6198 133.214 23.8125 132.047 23.8125C131.109 23.8125 130.234 23.6927 129.422 23.4531C128.609 23.2031 127.875 22.8281 127.219 22.3281C126.573 21.8177 126.016 21.1823 125.547 20.4219C125.078 19.6615 124.719 18.7656 124.469 17.7344C124.219 16.6927 124.094 15.5156 124.094 14.2031V10.0469C124.094 8.40104 124.281 6.97917 124.656 5.78125C125.042 4.57292 125.589 3.57292 126.297 2.78125C127.005 1.98958 127.844 1.40104 128.812 1.01562C129.781 0.630208 130.849 0.4375 132.016 0.4375C132.953 0.4375 133.823 0.5625 134.625 0.8125C135.438 1.05208 136.172 1.42708 136.828 1.9375C137.484 2.4375 138.042 3.06771 138.5 3.82812C138.969 4.58854 139.328 5.48958 139.578 6.53125C139.828 7.5625 139.953 8.73438 139.953 10.0469ZM134.688 14.8438V9.375C134.688 8.64583 134.646 8.01042 134.562 7.46875C134.49 6.92708 134.375 6.46875 134.219 6.09375C134.073 5.71875 133.891 5.41667 133.672 5.1875C133.453 4.94792 133.203 4.77604 132.922 4.67188C132.651 4.55729 132.349 4.5 132.016 4.5C131.599 4.5 131.224 4.58854 130.891 4.76562C130.568 4.93229 130.292 5.20312 130.062 5.57812C129.833 5.95312 129.656 6.45312 129.531 7.07812C129.417 7.70312 129.359 8.46875 129.359 9.375V14.8438C129.359 15.5833 129.396 16.2292 129.469 16.7812C129.552 17.3229 129.667 17.7865 129.812 18.1719C129.969 18.5469 130.156 18.8542 130.375 19.0938C130.594 19.3229 130.844 19.4896 131.125 19.5938C131.406 19.6979 131.714 19.75 132.047 19.75C132.453 19.75 132.818 19.6667 133.141 19.5C133.464 19.3333 133.74 19.0625 133.969 18.6875C134.208 18.3021 134.385 17.7969 134.5 17.1719C134.625 16.5365 134.688 15.7604 134.688 14.8438Z" fill="#3461FF"/>
</svg>
